<svg xmlns="http://www.w3.org/2000/svg" version="1.1" xmlns:xlink="http://www.w3.org/1999/xlink" xmlns:svgjs="http://svgjs.dev/svgjs" width="1500" height="465" viewBox="0 0 1500 465"><g transform="matrix(1,0,0,1,-0.9090909090909918,0.41991828245241436)"><svg viewBox="0 0 396 123" data-background-color="#1f2d5a" preserveAspectRatio="xMidYMid meet" height="465" width="1500" xmlns="http://www.w3.org/2000/svg" xmlns:xlink="http://www.w3.org/1999/xlink"><g id="tight-bounds" transform="matrix(1,0,0,1,0.2400000000000091,-0.11107515858418537)"><svg viewBox="0 0 395.52 123.22215031716838" height="123.22215031716838" width="395.52"><g><svg viewBox="0 0 397.4975999999999 123.8382610687542" height="123.22215031716838" width="395.52"><g><rect width="397.4975999999999" height="3.7930023753731668" x="0" y="68.05606429004173" fill="#fbfbfb" opacity="1" stroke-width="0" stroke="transparent" fill-opacity="1" class="rect-qz-0" data-fill-palette-color="primary" rx="1%" id="qz-0" data-palette-color="#fbfbfb"></rect></g><g transform="matrix(1,0,0,1,0.9887999999999693,81.77839225539701)"><svg viewBox="0 0 395.52 42.059868813357184" height="42.059868813357184" width="395.52"><g id="textblocktransform"><svg viewBox="0 0 395.52 42.059868813357184" height="42.059868813357184" width="395.52" id="textblock"><g><svg viewBox="0 0 395.52 42.059868813357184" height="42.059868813357184" width="395.52"><g transform="matrix(1,0,0,1,0,0)"><svg width="395.52" viewBox="2.05 -25.35 253.03 26.75" height="42.059868813357184" data-palette-color="#fbfbfb"><g class="wordmark-text-0" data-fill-palette-color="primary" id="text-0"><path d="M14.3 0.45Q8.65 0.45 5.35-2.8 2.05-6.05 2.05-11.65L2.05-11.65Q2.05-15.6 3.88-18.73 5.7-21.85 8.97-23.6 12.25-25.35 16.4-25.35L16.4-25.35Q17.9-25.35 19.53-25.15 21.15-24.95 22.28-24.7 23.4-24.45 23.7-24.4L23.7-24.4 23.9-24.1Q23.85-23.85 23.65-22.93 23.45-22 23.2-20.5 22.95-19 22.85-17.3L22.85-17.3 20.35-17.15Q20.35-17.3 20.4-17.85 20.45-18.4 20.45-19.1L20.45-19.1Q20.45-22.6 14.85-22.6L14.85-22.6Q10.95-22.6 8.7-20.03 6.45-17.45 6.45-12.95L6.45-12.95Q6.45-7.95 8.83-5 11.2-2.05 15.2-2.05L15.2-2.05Q17.85-2.05 19.43-3.48 21-4.9 21.7-7.95L21.7-7.95 24.2-8.15Q24.05-7.55 23.68-5.45 23.3-3.35 23.15-1.5L23.15-1.5 22.85-1.1Q22.55-1 21.43-0.63 20.3-0.25 18.4 0.1 16.5 0.45 14.3 0.45L14.3 0.45ZM29.35 0.45L29.6-1.6Q31.45-1.95 32.1-2.63 32.75-3.3 32.75-4.95L32.75-4.95 32.8-20.85Q32.8-22.1 32.5-22.53 32.2-22.95 31.3-22.95L31.3-22.95 29.95-22.9 29.8-23.1 30.1-25Q30.6-25 31.97-24.95 33.35-24.9 34.75-24.9L34.75-24.9Q35.9-24.9 37.5-25.05 39.1-25.2 39.6-25.25L39.6-25.25 39.4-23.2Q38.2-23 37.7-22.73 37.2-22.45 37.02-21.88 36.85-21.3 36.75-19.9L36.75-19.9 36.5-13.85 43-13.8Q45.65-13.8 48.75-14.15L48.75-14.15 48.8-20.85Q48.8-22.1 48.5-22.53 48.2-22.95 47.3-22.95L47.3-22.95 45.9-22.9 45.8-23.1 46.1-25Q46.55-24.95 47.85-24.93 49.15-24.9 50.4-24.9L50.4-24.9Q51.6-24.9 53.32-25.05 55.05-25.2 55.6-25.25L55.6-25.25 55.45-23.2Q53.9-23 53.4-22.58 52.9-22.15 52.85-21L52.85-21Q52.65-17.05 52.47-12.18 52.3-7.3 52.3-4.65L52.3-4.65Q52.3-3.05 52.65-2.53 53-2 54.05-2L54.05-2Q54.65-2 55.15-2.05 55.65-2.1 55.8-2.1L55.8-2.1 55.95-1.9 55.55 0.1Q55 0.1 53.47 0.05 51.95 0 50.3 0L50.3 0 45.3 0.05 45.7-1.95Q47-1.95 47.62-2.27 48.25-2.6 48.5-3.43 48.75-4.25 48.75-5.9L48.75-5.9 48.75-11.5 43-11.55Q42.2-11.55 39.75-11.38 37.3-11.2 36.45-11.15L36.45-11.15 36.3-4.65Q36.3-3.05 36.65-2.5 37-1.95 38.05-1.95L38.05-1.95Q38.65-1.95 39.15-2 39.65-2.05 39.8-2.1L39.8-2.1 39.9-1.9 39.55 0.1Q39.15 0.1 38.02 0.05 36.9 0 35.65 0L35.65 0Q33.8 0 31.6 0.15 29.4 0.3 29.35 0.45L29.35 0.45ZM80.15 0.6Q79.05 0.6 77.9-0.38 76.75-1.35 75.8-3.05L75.8-3.05 71.59-10.4 68.34-10.4 68.25-5.05Q68.25-3.6 68.45-2.98 68.65-2.35 69.22-2.15 69.8-1.95 71.2-1.9L71.2-1.9 71.3-1.75 70.9 0.15Q70.3 0.1 68.72 0.08 67.15 0.05 65.55 0.05L65.55 0.05Q64 0.05 62.85 0.1 61.7 0.15 61.3 0.2L61.3 0.2 61.65-1.85Q63.5-2.1 64.09-2.7 64.7-3.3 64.7-4.95L64.7-4.95 64.75-20.9Q64.75-22.1 64.45-22.53 64.15-22.95 63.3-22.95L63.3-22.95 61.9-22.9 61.75-23.1 62.05-25Q62.55-25 63.95-24.95 65.34-24.9 66.75-24.9L66.75-24.9Q68.2-24.9 69.84-24.98 71.5-25.05 72.09-25.05L72.09-25.05Q76.15-25.05 78.45-23.38 80.75-21.7 80.75-18.75L80.75-18.75Q80.75-16.45 79.2-14.5 77.65-12.55 74.84-11.3L74.84-11.3 79.09-4.9Q80.3-3.1 81.4-2.35 82.5-1.6 84.05-1.6L84.05-1.6 84.25-1.35 84 0.2 80.15 0.6ZM72.5-12.6Q73.45-13 74.17-13.38 74.9-13.75 75.8-14.95 76.7-16.15 76.7-18.05L76.7-18.05Q76.7-22.9 69.55-22.9L69.55-22.9Q69.15-22.9 69-22.73 68.84-22.55 68.84-22L68.84-22Q68.45-15.9 68.45-13L68.45-13 72.5-12.6ZM98.59 0.45Q95.19 0.45 92.57-1.05 89.94-2.55 88.52-5.3 87.09-8.05 87.09-11.65L87.09-11.65Q87.09-15.55 88.87-18.68 90.64-21.8 93.72-23.58 96.79-25.35 100.59-25.35L100.59-25.35Q104.04-25.35 106.69-23.85 109.34-22.35 110.79-19.63 112.24-16.9 112.24-13.3L112.24-13.3Q112.24-9.4 110.47-6.28 108.69-3.15 105.57-1.35 102.44 0.45 98.59 0.45L98.59 0.45ZM99.79-1.95Q103.44-1.95 105.69-4.58 107.94-7.2 107.94-11.55L107.94-11.55Q107.94-14.85 106.87-17.35 105.79-19.85 103.82-21.2 101.84-22.55 99.24-22.55L99.24-22.55Q95.69-22.55 93.52-19.95 91.34-17.35 91.34-13L91.34-13Q91.34-9.7 92.39-7.2 93.44-4.7 95.37-3.33 97.29-1.95 99.79-1.95L99.79-1.95ZM137.39-6.8L137.34-21.25Q137.34-22.9 135.99-22.9L135.99-22.9 134.49-22.9 134.39-23.1 134.74-25.05Q135.19-25 136.44-24.95 137.69-24.9 138.99-24.9L138.99-24.9Q140.09-24.9 141.47-25.03 142.84-25.15 143.24-25.2L143.24-25.2 143.04-23.15Q141.59-22.95 140.97-22.38 140.34-21.8 140.29-20.65L140.29-20.65 139.69 0.85 137.74 1.4Q132.99-5.55 128.14-12.2 123.29-18.85 123.29-18.75L123.29-18.75 123.04-18.75 122.89-3.6Q122.89-2.65 123.19-2.3 123.49-1.95 124.19-1.95L124.19-1.95 126.19-2 126.34-1.85 125.94 0.15Q125.49 0.1 124.17 0.05 122.84 0 121.39 0L121.39 0Q120.24 0 118.94 0.13 117.64 0.25 117.24 0.3L117.24 0.3 117.49-1.75Q118.74-1.9 119.34-2.48 119.94-3.05 119.99-4.2L119.99-4.2 120.54-20.7Q120.54-21.95 119.82-22.43 119.09-22.9 117.04-23.15L117.04-23.15 116.84-23.4 117.19-25.1Q117.59-25.05 118.72-24.98 119.84-24.9 120.99-24.9L120.99-24.9Q122.09-24.9 122.94-24.95 123.79-25 124.04-25.05L124.04-25.05Q128.09-19.1 132.62-12.9 137.14-6.7 137.14-6.8L137.14-6.8 137.39-6.8ZM147.64 0.45L147.89-1.6Q149.79-1.95 150.44-2.63 151.09-3.3 151.09-4.95L151.09-4.95 151.14-20.85Q151.14-22.1 150.84-22.53 150.54-22.95 149.64-22.95L149.64-22.95 147.99-22.9 147.89-23.1 148.14-25Q148.44-25 149.76-24.95 151.09-24.9 153.24-24.9L153.24-24.9Q154.39-24.9 156.06-25.05 157.74-25.2 158.24-25.25L158.24-25.25 158.04-23.2Q156.39-23 155.84-22.58 155.29-22.15 155.19-21L155.19-21Q154.99-17 154.81-12.15 154.64-7.3 154.64-4.65L154.64-4.65Q154.64-3.05 154.99-2.5 155.34-1.95 156.39-1.95L156.39-1.95Q157.09-1.95 157.66-2 158.24-2.05 158.44-2.1L158.44-2.1 158.54-1.9 158.19 0.1Q157.59 0.1 155.94 0.05 154.29 0 152.64 0L152.64 0Q151.29 0 149.71 0.18 148.14 0.35 147.64 0.45L147.64 0.45ZM175.24 0.45Q169.59 0.45 166.28-2.8 162.99-6.05 162.99-11.65L162.99-11.65Q162.99-15.6 164.81-18.73 166.63-21.85 169.91-23.6 173.19-25.35 177.34-25.35L177.34-25.35Q178.84-25.35 180.46-25.15 182.09-24.95 183.21-24.7 184.34-24.45 184.63-24.4L184.63-24.4 184.84-24.1Q184.78-23.85 184.59-22.93 184.38-22 184.13-20.5 183.88-19 183.78-17.3L183.78-17.3 181.28-17.15Q181.28-17.3 181.34-17.85 181.38-18.4 181.38-19.1L181.38-19.1Q181.38-22.6 175.78-22.6L175.78-22.6Q171.88-22.6 169.63-20.03 167.38-17.45 167.38-12.95L167.38-12.95Q167.38-7.95 169.76-5 172.13-2.05 176.13-2.05L176.13-2.05Q178.78-2.05 180.36-3.48 181.94-4.9 182.63-7.95L182.63-7.95 185.13-8.15Q184.99-7.55 184.61-5.45 184.24-3.35 184.09-1.5L184.09-1.5 183.78-1.1Q183.49-1 182.36-0.63 181.24-0.25 179.34 0.1 177.44 0.45 175.24 0.45L175.24 0.45ZM190.63 0.4L190.93-1.7Q192.53-1.95 193.11-2.63 193.68-3.3 193.68-5L193.68-5 193.73-20.85Q193.73-22.1 193.43-22.53 193.13-22.95 192.23-22.95L192.23-22.95 190.88-22.9 190.73-23.1 191.03-25Q191.28-25 192.53-24.95 193.78-24.9 195.88-24.9L195.88-24.9Q196.98-24.9 198.61-25.05 200.23-25.2 200.73-25.25L200.73-25.25 200.53-23.15Q199.18-23 198.63-22.68 198.08-22.35 197.98-21.85 197.88-21.35 197.73-19.8L197.73-19.8Q197.23-13.1 197.23-4.95L197.23-4.95Q197.23-3.7 197.46-3.13 197.68-2.55 198.36-2.35 199.03-2.15 200.48-2.15L200.48-2.15Q202.88-2.15 204.01-2.55 205.13-2.95 205.71-4.13 206.28-5.3 206.73-7.85L206.73-7.85 208.93-8.1 209.08-7.8Q208.98-7.15 208.61-4.83 208.23-2.5 207.93 0.05L207.93 0.05 207.68 0.35Q206.53 0.3 202.81 0.15 199.08 0 196.53 0L196.53 0Q194.53 0 192.81 0.18 191.08 0.35 190.63 0.4L190.63 0.4ZM212.38 0.4L212.63-1.7Q214.48-1.9 215.13-2.6 215.78-3.3 215.78-5L215.78-5 215.83-20.85Q215.83-22.1 215.53-22.53 215.23-22.95 214.33-22.95L214.33-22.95 212.98-22.9 212.88-23.1 213.18-25Q213.78-25 215.53-24.95 217.28-24.9 219.33-24.9L219.33-24.9Q227.68-24.9 231.68-25.35L231.68-25.35 231.83-25.1Q231.73-24.55 231.38-22.6 231.03-20.65 230.88-18.4L230.88-18.4 228.48-18.2Q228.48-18.4 228.53-18.88 228.58-19.35 228.58-19.85L228.58-19.85Q228.58-21.15 228.21-21.68 227.83-22.2 226.66-22.38 225.48-22.55 222.58-22.55L222.58-22.55Q221.23-22.55 220.73-22.48 220.23-22.4 220.08-22.13 219.93-21.85 219.88-21.1L219.88-21.1 219.58-14 223.68-13.95Q224.58-13.95 226.33-14.13 228.08-14.3 228.63-14.35L228.63-14.35 228.83-14.1 228.23-11.5Q227.68-11.5 226.06-11.55 224.43-11.6 222.63-11.6L222.63-11.6Q221.23-11.6 219.48-11.35L219.48-11.35Q219.33-7.55 219.33-4.5L219.33-4.5Q219.33-3.35 219.5-2.9 219.68-2.45 220.31-2.3 220.93-2.15 222.38-2.15L222.38-2.15Q225.63-2.15 227.03-2.45 228.43-2.75 229-3.68 229.58-4.6 229.93-6.85L229.93-6.85 232.13-7.05 232.33-6.8Q232.18-6.25 231.81-4.23 231.43-2.2 231.23 0L231.23 0 230.93 0.25Q229.58 0.2 225.33 0.1 221.08 0 218.43 0L218.43 0Q216.38 0 214.63 0.18 212.88 0.35 212.38 0.4L212.38 0.4ZM244.63 0.45Q242.88 0.45 241.4 0.15 239.93-0.15 239.05-0.48 238.18-0.8 237.98-0.9L237.98-0.9 237.73-1.35Q237.78-1.6 237.9-2.48 238.03-3.35 238.15-4.93 238.28-6.5 238.28-8.1L238.28-8.1 240.53-8.3Q240.53-5.6 240.95-4.28 241.38-2.95 242.43-2.45 243.48-1.95 245.63-1.95L245.63-1.95Q248.03-1.95 249.5-3 250.98-4.05 250.98-5.8L250.98-5.8Q250.98-6.95 250.15-7.83 249.33-8.7 248.25-9.3 247.18-9.9 244.83-11.05L244.83-11.05Q241.63-12.6 239.9-14.1 238.18-15.6 238.18-17.95L238.18-17.95Q238.18-20.05 239.45-21.75 240.73-23.45 242.98-24.4 245.23-25.35 247.98-25.35L247.98-25.35Q249.63-25.35 251.08-25.15 252.53-24.95 253.38-24.73 254.23-24.5 254.43-24.4L254.43-24.4 254.63-24.05Q254.53-23.5 254.18-21.58 253.83-19.65 253.68-17.45L253.68-17.45 251.73-17.25 251.43-17.45Q251.43-17.6 251.48-18.07 251.53-18.55 251.53-19.25L251.53-19.25Q251.53-21.2 250.5-21.98 249.48-22.75 246.88-22.75L246.88-22.75Q244.78-22.75 243.4-21.78 242.03-20.8 242.03-19.3L242.03-19.3Q242.03-17.8 243.4-16.75 244.78-15.7 247.58-14.35L247.58-14.35Q250.03-13.2 251.5-12.35 252.98-11.5 254.03-10.2 255.08-8.9 255.08-7.2L255.08-7.2Q255.08-4.95 253.75-3.23 252.43-1.5 250.05-0.53 247.68 0.45 244.63 0.45L244.63 0.45Z" fill="#fbfbfb" data-fill-palette-color="primary"></path></g></svg></g></svg></g></svg></g></svg></g><g transform="matrix(1,0,0,1,167.379315473283,0)"><svg viewBox="0 0 62.73896905343393 58.126738700059626" height="58.126738700059626" width="62.73896905343393"><g><svg xmlns="http://www.w3.org/2000/svg" xmlns:xlink="http://www.w3.org/1999/xlink" version="1.1" x="0" y="0" viewBox="0.4 4.100000000000001 99.3 92" enable-background="new 0 0 100 100" xml:space="preserve" height="58.126738700059626" width="62.73896905343393" class="icon-icon-0" data-fill-palette-color="accent" id="icon-0"><path d="M65.2 67.4c0.6 0 1.1-0.5 1.1-1.1v-2.9c0-0.6-0.5-1.1-1.1-1.1h-2.4c-0.3-1.7-1-3.3-1.9-4.7l1.7-1.7c0.4-0.4 0.4-1.1 0-1.5l-2.1-2.1c-0.4-0.4-1.1-0.4-1.5 0L57.2 54c-1.4-0.9-3-1.6-4.7-1.9v-2.4c0-0.6-0.5-1.1-1.1-1.1h-2.9c-0.6 0-1.1 0.5-1.1 1.1v2.4c-1.7 0.3-3.3 1-4.7 1.9l-1.7-1.7c-0.4-0.4-1.1-0.4-1.5 0l-2.1 2.1c-0.4 0.4-0.4 1.1 0 1.5l1.7 1.7c-0.9 1.4-1.6 3-1.9 4.7h-2.4c-0.6 0-1.1 0.5-1.1 1.1v2.9c0 0.6 0.5 1.1 1.1 1.1h2.4c0.3 1.7 1 3.3 1.9 4.7l-1.7 1.7c-0.4 0.4-0.4 1.1 0 1.5l2.1 2.1c0.4 0.4 1.1 0.4 1.5 0l1.7-1.7c1.4 0.9 3 1.6 4.7 1.9V80c0 0.6 0.5 1.1 1.1 1.1h2.9c0.6 0 1.1-0.5 1.1-1.1v-2.4c1.7-0.3 3.3-1 4.7-1.9l1.7 1.7c0.4 0.4 1.1 0.4 1.5 0l2.1-2.1c0.4-0.4 0.4-1.1 0-1.5l-1.7-1.7c0.9-1.4 1.6-3 1.9-4.7H65.2zM54.5 64.3h-2.3v6.1c0 0.3-0.2 0.5-0.5 0.5h-3.4c-0.3 0-0.5-0.2-0.5-0.5v-6.1h-2.3c-0.2 0-0.4-0.3-0.2-0.5l4.5-5.4c0.1-0.2 0.4-0.2 0.6 0l4.5 5.4C54.9 64.1 54.8 64.3 54.5 64.3zM67.6 40.4H52.3h-4.6H32.4v-5c0-1 0.5-2 1.3-2.7C38.1 29 43 26.6 44 26.1c0.1-0.1 0.2-0.2 0.2-0.3v-3.3c-0.5-0.9-0.9-1.9-1-2.7-0.4 0-0.9-0.6-1.4-2.5-0.7-2.5 0-3 0.6-3-0.3-1.4-1.2-6.5 2.5-8.7 0 0-0.8-0.6-0.7-1.5 0 0 4.3 0.5 6.3 0.1 2.1-0.4 4.3 1.2 4.6 2.7 0 0 4.2 0 2.6 7.5 0.7 0 1.4 0.4 0.6 3-0.5 1.9-1 2.5-1.4 2.5-0.1 0.9-0.5 1.8-1 2.7v3.3c0 0.1 0.1 0.2 0.2 0.3 1 0.5 5.8 2.9 10.3 6.6 0.8 0.7 1.3 1.7 1.3 2.7V40.4zM98.4 88.3c0.8 0.7 1.3 1.7 1.3 2.7v5H84.3h-4.6H64.4v-5c0-1 0.5-2 1.3-2.7 4.5-3.7 9.3-6.1 10.3-6.6 0.1-0.1 0.2-0.2 0.2-0.3v-3.3c-0.5-0.9-0.9-1.9-1-2.7-0.4 0-0.9-0.6-1.4-2.5-0.7-2.5 0-3 0.6-3-0.3-1.4-1.2-6.5 2.5-8.7 0 0-0.8-0.6-0.7-1.5 0 0 4.3 0.5 6.3 0.1 2.1-0.4 4.3 1.2 4.6 2.7 0 0 4.2 0 2.6 7.5 0.7 0 1.4 0.4 0.6 3-0.5 1.9-1 2.5-1.4 2.5-0.1 0.9-0.5 1.8-1 2.7v3.3c0 0.1 0.1 0.2 0.2 0.3C89 82.2 93.9 84.6 98.4 88.3zM15.7 96H0.4v-5c0-1 0.5-2 1.3-2.7 4.5-3.7 9.3-6.1 10.3-6.6 0.1-0.1 0.2-0.2 0.2-0.3v-3.3c-0.5-0.9-0.9-1.9-1-2.7-0.4 0-0.9-0.6-1.4-2.5-0.7-2.5 0-3 0.6-3-0.3-1.4-1.2-6.5 2.5-8.7 0 0-0.8-0.6-0.7-1.5 0 0 4.3 0.5 6.3 0.1 2.1-0.4 4.3 1.2 4.6 2.7 0 0 4.2 0 2.6 7.5 0.7 0 1.4 0.4 0.6 3-0.5 1.9-1 2.5-1.4 2.5-0.1 0.9-0.5 1.8-1 2.7v3.3c0 0.1 0.1 0.2 0.2 0.3 1 0.5 5.8 2.9 10.3 6.6 0.8 0.7 1.3 1.7 1.3 2.7v5H20.3 15.7z" fill="#2f76db" data-fill-palette-color="accent"></path></svg></g></svg></g><g></g></svg></g><defs></defs></svg><rect width="395.52" height="123.22215031716838" fill="none" stroke="none" visibility="hidden"></rect></g></svg></g></svg>